<?xml version="1.0" encoding="UTF-8" standalone="no"?>
<!-- Generator: visioncortex VTracer -->

<svg
   id="svg"
   version="1.1"
   style="display: block;"
   viewBox="0 0 981 876"
   sodipodi:docname="export-2024-11-18 104104.svg"
   inkscape:version="1.2.1 (9c6d41e, 2022-07-14)"
   xmlns:inkscape="http://www.inkscape.org/namespaces/inkscape"
   xmlns:sodipodi="http://sodipodi.sourceforge.net/DTD/sodipodi-0.dtd"
   xmlns="http://www.w3.org/2000/svg"
   xmlns:svg="http://www.w3.org/2000/svg">
  <defs
     id="defs14" />
  <sodipodi:namedview
     id="namedview12"
     bordercolor="#000000"
     borderopacity="0.25"
     inkscape:showpageshadow="2"
     inkscape:pageopacity="0.0"
     inkscape:pagecheckerboard="0"
     inkscape:deskcolor="#d1d1d1"
     showgrid="false"
     inkscape:zoom="0.77441738"
     inkscape:cx="140.75097"
     inkscape:cy="394.49011"
     inkscape:window-width="2611"
     inkscape:window-height="1205"
     inkscape:window-x="0"
     inkscape:window-y="25"
     inkscape:window-maximized="0"
     inkscape:current-layer="svg" />
  <path
     d="M 2.4814707,-1.2903648 C 10.217892,-1.4504535 12.894378,-0.79985349 19.198518,4.1066705 22.523737,6.323483 22.965403,7.1453284 26.75,6.875 32.079579,6.7659151 34.742063,7.8065475 39,11 c 4.724285,6.227466 3.151707,17.188041 3.157715,24.506836 0.0047,1.365607 0.0098,2.731213 0.0154,4.096817 0.01123,2.928997 0.01969,5.857984 0.02612,8.786995 0.01072,4.630503 0.03097,9.260934 0.05312,13.891395 0.0618,13.162951 0.116023,26.325896 0.149017,39.488957 0.01832,7.27868 0.04722,14.55725 0.08801,21.83585 0.02109,3.84926 0.03653,7.69836 0.03881,11.54768 0.0021,3.61494 0.01796,7.22956 0.04439,10.8444 0.01065,1.96145 0.0064,3.92297 0.0018,5.88445 l 0.03361,3.52598 0.01003,3.07024 c 0.183536,2.55747 0.183536,2.55747 1.756051,4.34605 6.929125,5.00471 24.442763,0.13031 32.472431,-0.92608 2.995674,-0.39402 5.99249,-0.77802 8.989774,-1.15958 4.268486,-0.54399 8.536495,-1.09152 12.804184,-1.64172 C 186.42531,147.80443 186.42531,147.80443 226.6875,147.5625 l 2.44003,-0.0206 c 2.23283,-0.0111 4.46398,0.001 6.69669,0.0245 l 3.78393,0.0295 c 4.38329,0.52216 7.79065,1.90934 11.03638,4.93921 3.08822,4.03843 4.52386,6.21817 4.66797,11.27734 l 0.11328,2.58203 C 254.8364,170.0011 253.60091,171.43618 251,174 c -2.48587,1.57621 -5.08216,2.82528 -7.75,4.0625 l -2.05469,0.98633 c -1.36442,0.65497 -2.73095,1.30557 -4.09961,1.95166 C 233.70544,182.61742 230.35496,184.31124 227,186 l 0.5,3.375 c 0.17785,1.54042 0.34349,3.08227 0.5,4.625 l 0.27734,2.58203 c 0.27307,4.44229 0.3314,6.6353 -2.46484,10.23047 -4.19467,2.8435 -9.1413,4.39389 -13.88672,6.07422 C 208.87247,213.9243 208.87247,213.9243 206,216 l -1.0625,2.8125 c -6.56154,10.79479 -28.78183,14.22112 -40.375,17.20337 C 137.08789,242.71012 109.09668,245.50445 81,248 l -2.596741,0.23108 C 67.605072,249.1894 56.803986,250.10958 46,251 c -0.862668,16.4797 -1.176783,32.92122 -1.203125,49.42187 l -0.0086,3.72477 c -0.01489,6.53902 -0.02418,13.07801 -0.02854,19.61703 -0.0037,5.25982 -0.01802,10.51952 -0.04102,15.7793 -0.147988,34.55826 0.71445,68.85663 2.731768,103.34997 1.067481,18.6776 1.68769,37.38365 1.822919,56.09143 l 0.01871,2.32391 c 0.04479,5.81388 0.06792,11.62769 0.08285,17.44172 l 0.0083,2.62084 c 0.07693,27.10534 -1.014826,53.81467 -3.54298,80.79981 -1.206218,13.098 -2.038384,26.06436 -2.078613,39.21216 l -0.01018,2.02189 c -0.0343,6.99422 0.0013,13.98111 0.141279,20.97396 0.01067,2.23966 0.02041,4.47933 0.02905,6.719 l 0.122604,3.05215 c -0.01533,4.22436 -0.116723,6.79356 -2.96965,10.04279 C 37.567065,687.02876 34.481299,689.15997 30,690 l -0.351318,1.896 c -0.525616,2.82692 -1.055841,5.65296 -1.586182,8.479 l -0.552734,2.98437 -0.53711,2.85157 -0.491943,2.63427 C 26,711 26,711 25,713 22.014853,712.92893 19.793975,712.68102 17.474365,710.69141 13.477337,706.11809 11.542423,701.79623 9.6875,696.0625 7.3542987,689.4256 5.2443205,685.01413 -0.88671875,681.09375 -7.2442477,674.79498 -7.5805946,665.69338 -7.9375,657.25 c -0.5078356,-8.35072 -1.6078285,-14.87612 -4.827637,-22.5957 -1.343899,-3.97697 -1.940848,-7.77868 -2.332519,-11.93164 l -0.245499,-2.48859 c -0.933875,-10.21305 -1.209567,-20.45311 -1.490555,-30.70102 -0.108039,-3.93791 -0.225302,-7.87549 -0.344269,-11.81308 -0.439063,-14.65487 -0.838915,-29.31086 -1.241101,-43.96679 -0.334727,-12.18869 -0.674695,-24.37724 -1.01842,-36.56568 l -0.09525,-3.38789 c -0.853819,-30.30376 -1.844697,-60.57825 -3.624706,-90.84351 l -0.194107,-3.35063 -0.147626,-2.53486 c -1.155612,-20.19513 -1.647756,-40.35215 -1.598468,-60.57842 0.0019,-2.31697 0.0033,-4.63393 0.0043,-6.9509 0.0038,-6.0002 0.01353,-12.00038 0.0247,-18.00058 0.01036,-6.162 0.01482,-12.32401 0.01984,-18.48602 0.01062,-12.01824 0.02761,-24.03646 0.04883,-36.05469 -21.187104,1.73234 -42.317754,3.69086 -63.4375,6.125 -3.492993,0.3991 -6.986141,0.79678 -10.479507,1.1926 -2.129586,0.24162 -4.258956,0.48518 -6.388036,0.73126 -9.78976,1.11704 -19.56676,2.08498 -29.42543,2.18942 l -2.30525,0.0245 c -1.58532,0.0136 -3.17067,0.0245 -4.75603,0.0324 -1.60263,0.0116 -3.20521,0.0322 -4.80762,0.0615 C -163.65212,267.66737 -163.65212,267.66737 -171,263 l -1.88989,-1.05029 C -174.625,260.8125 -174.625,260.8125 -177,258 c -0.25788,-3.14609 0.29302,-5.94164 1,-9 0.33468,-1.6664 0.66836,-3.333 1,-5 l -1.35767,-1.08228 c -2.07182,-1.65569 -4.13832,-3.31791 -6.20483,-4.98022 l -2.13477,-1.70117 C -196.73628,226.52745 -196.73628,226.52745 -199,222 c -0.366,-3.87962 -0.41872,-6.24979 1.5,-9.6875 6.77106,-6.26323 15.3765,-7.71008 24.11719,-9.625 1.33128,-0.29971 2.66232,-0.60052 3.99313,-0.90234 2.76007,-0.62502 5.52117,-1.24513 8.28311,-1.86182 5.14365,-1.15194 10.2754,-2.35393 15.40761,-3.55563 C -63.876171,177.21407 -63.876171,177.21407 -25,173 l -0.203369,-3.25757 c -0.746435,-12.60825 -1.011778,-25.20103 -1.185333,-37.82858 -0.311494,-22.19083 -0.950526,-44.349218 -1.950898,-66.519563 -0.380229,-8.494613 -0.753173,-16.988477 -0.843994,-25.491943 l -0.04468,-3.707276 c 0.346764,-4.853584 1.370334,-7.357558 4.853271,-10.757568 2.37928,-1.908078 4.599238,-2.926933 7.4375,-4 4.08306,-1.878518 5.025252,-4.259924 6.625,-8.375 L -9.1523438,9.8632813 C -6.8676154,5.2912175 -0.76106534,-0.77616638 2.4814707,-1.2903648 Z"
     style="fill:#ffbb27"
     id="cruz"
     transform="translate(390,75)"
     sodipodi:nodetypes="ccccccccscscccccscccccccccccsccccccccccccccsccccccccccccccccccccccccccccscccccccccccccccscccccccccccccccccccccccccccc"
     inkscape:export-filename="path9.svg"
     inkscape:export-xdpi="96"
     inkscape:export-ydpi="96" />
</svg>
